<?xml version="1.0" encoding="UTF-8" standalone="no"?>
<!-- Generator: Adobe Illustrator 12.0.1, SVG Export Plug-In . SVG Version: 6.00 Build 51448)  -->

<svg
   xmlns:dc="http://purl.org/dc/elements/1.1/"
   xmlns:cc="http://creativecommons.org/ns#"
   xmlns:rdf="http://www.w3.org/1999/02/22-rdf-syntax-ns#"
   xmlns:svg="http://www.w3.org/2000/svg"
   xmlns="http://www.w3.org/2000/svg"
   xmlns:sodipodi="http://sodipodi.sourceforge.net/DTD/sodipodi-0.dtd"
   xmlns:inkscape="http://www.inkscape.org/namespaces/inkscape"
   version="1.1"
   id="Layer_1"
   width="186"
   height="186"
   viewBox="0 0 186 186"
   style="overflow:visible"
   xml:space="preserve"
   sodipodi:docname="clef_w.svg"
   inkscape:version="0.92.4 5da689c313, 2019-01-14"><metadata
   id="metadata61"><rdf:RDF><cc:Work
       rdf:about=""><dc:format>image/svg+xml</dc:format><dc:type
         rdf:resource="http://purl.org/dc/dcmitype/StillImage" /><dc:title></dc:title></cc:Work></rdf:RDF></metadata><defs
   id="defs59">
	
	
	
	
	
	
	
</defs><sodipodi:namedview
   pagecolor="#ffffff"
   bordercolor="#666666"
   borderopacity="1"
   objecttolerance="10"
   gridtolerance="10"
   guidetolerance="10"
   inkscape:pageopacity="0"
   inkscape:pageshadow="2"
   inkscape:window-width="1246"
   inkscape:window-height="720"
   id="namedview57"
   showgrid="false"
   inkscape:zoom="0.9082131"
   inkscape:cx="128.54064"
   inkscape:cy="68.243774"
   inkscape:window-x="128"
   inkscape:window-y="178"
   inkscape:window-maximized="0"
   inkscape:current-layer="Layer_1" />
<path
   inkscape:connector-curvature="0"
   id="path4"
   d="M 506.07,56.348634 H 0 v -1.356 h 506.07 z m 0,18.358995 H 0 v -1.512 h 506.07 z m 0,18.216 H 0 v -1.367 h 506.07 z m 0,18.217001 H 0 v -1.368 h 506.07 z m 0,18.227 H 0 v -1.379 h 506.07 z"
   style="fill:#ffffff" /><path
   inkscape:connector-curvature="0"
   id="path6"
   d="m 80.593,128.40963 c -1.776,0.288 -3.721,0.433 -5.832,0.433 -4.465,0 -7.753,-0.504 -9.864,-1.512 -6.721,-3.217 -11.473,-7.178 -14.257,-11.882 -2.016,-3.408 -3.216,-7.92 -3.6,-13.537 -0.336,-4.656001 0.768,-9.528001 3.312,-14.617001 2.159,-4.368 4.955,-8.173 8.387,-11.413 3.432,-3.24 7.309,-6.492 11.629,-9.757 -0.24,-1.2 -0.576,-3.575995 -1.008,-7.128995 -0.24,-3.312 -0.36,-5.593 -0.36,-6.841 0,-3.456 0.288,-6.744 0.864,-9.865 0.575,-2.831999 2.039,-6.143999 4.392,-9.936999 2.592,-4.176 4.848,-6.288 6.769,-6.337 1.584,0 3.348,2.377 5.292,7.129 1.943005,4.753 2.964005,8.833999 3.060005,12.241999 0.096,4.513 -0.36,8.401 -1.368,11.666 -0.672005,2.16 -1.920005,4.849 -3.744005,8.063995 -0.768,1.297 -2.352,3.433 -4.752,6.409 -0.672,0.865 -1.561,1.753 -2.664,2.665 -0.96,0.721 -1.896,1.465 -2.808,2.232 l 2.376,13.97 c 0.624,-0.096 1.32,-0.144 2.088,-0.144 4.368,0 7.752,0.889 10.152005,2.664 4.512,3.312 6.983,8.041001 7.416,14.186001 0.336,4.272 -0.624,8.232 -2.88,11.881 -2.449,3.984 -6.049005,6.961 -10.801005,8.93 0.623,4.368 1.247,8.545 1.872,12.529 0.336,2.399 0.504,4.439 0.504,6.12 0,2.304 -0.36,4.128 -1.08,5.473 -2.641,4.944 -6.648,7.585 -12.023,7.921 -3.217,0.191 -6.36,-0.48 -9.433,-2.017 -3.84,-1.873 -5.856,-4.586 -6.048,-8.139 -0.191,-2.594 0.312,-4.803 1.512,-6.627 1.344,-2.161 3.336,-3.313 5.977,-3.457 1.824,-0.145 3.552,0.443 5.185,1.765 1.632,1.319 2.52,2.963 2.664,4.931 0.336,4.32 -2.328,7.272 -7.992,8.856 1.296,1.871 3.888,2.808 7.776,2.808 2.063,0 4.079,-0.624 6.048,-1.872 1.968,-1.248 3.479,-2.809 4.536,-4.68 0.672,-1.248 1.008,-3.145 1.008,-5.688 0,-1.536 -0.12,-3.264 -0.36,-5.184 -0.673,-4.079 -1.322,-8.159 -1.945,-12.239 z m -4.536,-27.936 c -3.505,0.096 -6.146,1.32 -7.921,3.672 -1.344,1.824 -1.944,3.864 -1.8,6.12 0.048,1.68 0.66,3.396 1.836,5.148 1.176,1.752 2.46,2.987 3.853,3.708 -0.24,0.144 -0.48,0.407 -0.72,0.792 -2.785,-1.344 -4.825,-2.904 -6.12,-4.68 -1.92,-2.593 -3,-5.473 -3.24,-8.641 -0.145,-2.111 0.336,-4.319 1.44,-6.624001 1.199,-2.496 2.951,-4.632 5.255,-6.408 1.729,-1.344 3.696,-2.279 5.904,-2.808 l -2.16,-13.032 c -1.632,0.961 -3.983,2.833 -7.056,5.616 -3.792,3.408 -6.552,6.456 -8.279,9.144 -3.745,5.809 -5.449,10.824001 -5.112,15.048001 0.384,5.232 2.76,9.732 7.128,13.501 4.367,3.767 9.504,5.651 15.408,5.651 1.92,0 3.84,-0.217 5.76,-0.648 -1.441,-8.543 -2.832,-17.063 -4.176,-25.559 z m 6.047,-63.287995 c -3.024,0 -5.521,2.328 -7.488,6.983999 -1.872,4.32 -2.808,9.336 -2.808,15.047 0,1.873 0.12,3.673 0.36,5.399995 3.791,-2.975995 7.007,-6.238995 9.647,-9.791995 3.312,-4.416 4.849,-8.231 4.608,-11.447 -0.287,-4.174999 -1.727,-6.239999 -4.319,-6.191999 z m -4.176,63.144995 4.032,25.128 c 6.096005,-2.064 8.880005,-6.792 8.353005,-14.184 -0.576,-7.633 -4.705005,-11.280001 -12.385005,-10.944 z"
   style="fill:#ffffff" />
</svg>